HIERARCHY
ROOT Hips
{
 OFFSET 0.000000 0.000000 0.000000
 CHANNELS 6 Xposition Yposition Zposition Yrotation Xrotation Zrotation
 JOINT Chest
 {
  OFFSET 0.000000 9.585900 0.002600
  CHANNELS 3 Yrotation Xrotation Zrotation
  JOINT Chest2
  {
   OFFSET 0.000000 9.601200 -0.005300
   CHANNELS 3 Yrotation Xrotation Zrotation
   JOINT Chest3
   {
    OFFSET 0.000000 9.561800 0.000000
    CHANNELS 3 Yrotation Xrotation Zrotation
    JOINT Chest4
    {
     OFFSET 0.000000 9.552100 0.000000
     CHANNELS 3 Yrotation Xrotation Zrotation
     JOINT Neck
     {
      OFFSET 0.000000 14.453000 0.000000
      CHANNELS 3 Yrotation Xrotation Zrotation
      JOINT Head
      {
       OFFSET 0.000000 8.936500 -0.011300
       CHANNELS 3 Yrotation Xrotation Zrotation
       End Site
       {
        OFFSET 0.000000 17.073600 -0.006000
       }
      }
     }
     JOINT RightCollar
     {
      OFFSET -2.921100 9.558500 0.000000
      CHANNELS 3 Yrotation Xrotation Zrotation
      JOINT RightShoulder
      {
       OFFSET -13.519700 0.000000 0.000000
       CHANNELS 3 Yrotation Xrotation Zrotation
       JOINT RightElbow
       {
        OFFSET 0.000000 -29.696600 0.000000
        CHANNELS 3 Yrotation Xrotation Zrotation
        JOINT RightWrist
        {
         OFFSET 0.000000 -24.004700 0.000000
         CHANNELS 3 Yrotation Xrotation Zrotation
         End Site
         {
          OFFSET 0.000000 -17.728500 0.000000
         }
        }
       }
      }
     }
     JOINT LeftCollar
     {
      OFFSET 2.921100 9.558500 0.000000
      CHANNELS 3 Yrotation Xrotation Zrotation
      JOINT LeftShoulder
      {
       OFFSET 13.519700 0.000000 0.000000
       CHANNELS 3 Yrotation Xrotation Zrotation
       JOINT LeftElbow
       {
        OFFSET 0.000000 -29.696600 0.000000
        CHANNELS 3 Yrotation Xrotation Zrotation
        JOINT LeftWrist
        {
         OFFSET 0.000000 -24.004700 0.000000
         CHANNELS 3 Yrotation Xrotation Zrotation
         End Site
         {
          OFFSET 0.000000 -17.728500 0.000000
         }
        }
       }
      }
     }
    }
   }
  }
 }
 JOINT RightHip
 {
  OFFSET -7.771700 -0.012900 -0.001300
  CHANNELS 3 Yrotation Xrotation Zrotation
  JOINT RightKnee
  {
   OFFSET 0.000000 -40.869800 0.001200
   CHANNELS 3 Yrotation Xrotation Zrotation
   JOINT RightAnkle
   {
    OFFSET 0.000000 -39.717900 0.002100
    CHANNELS 3 Yrotation Xrotation Zrotation
    JOINT RightToe
    {
     OFFSET 0.000000 -4.965400 11.033500
     CHANNELS 3 Yrotation Xrotation Zrotation
     End Site
     {
      OFFSET 0.000000 -1.423100 5.872300
     }
    }
   }
  }
 }
 JOINT LeftHip
 {
  OFFSET 7.771700 -0.012900 -0.001300
  CHANNELS 3 Yrotation Xrotation Zrotation
  JOINT LeftKnee
  {
   OFFSET 0.000000 -40.869800 0.001200
   CHANNELS 3 Yrotation Xrotation Zrotation
   JOINT LeftAnkle
   {
    OFFSET 0.000000 -39.717900 0.002100
    CHANNELS 3 Yrotation Xrotation Zrotation
    JOINT LeftToe
    {
     OFFSET 0.000000 -4.965400 11.033500
     CHANNELS 3 Yrotation Xrotation Zrotation
     End Site
     {
      OFFSET 0.000000 -1.423100 5.872300
     }
    }
   }
  }
 }
}
MOTION
Frames: 12
Frame Time: 0.008333
-0.563683 54.342565 35.421943 168.746427 -39.315504 -3.186353 3.144939 22.144801 3.280731 0.369839 3.143498 0.378546 0.601531 5.070411 0.613616 2.577066 18.737922 2.617654 2.654185 14.505851 -0.362362 5.119134 -8.796001 -1.688150 -7.434061 -0.572704 -4.126305 0.769578 -4.895887 5.967483 -108.313882 -76.532914 125.228776 1.283549 4.735328 -5.411132 -5.336194 0.437331 -0.159043 7.176335 -1.321240 2.112971 143.836650 -74.601401 -163.573097 -4.980184 -14.860473 18.447725 -3.166874 -42.422795 7.539049 -134.984008 86.573298 -131.552412 -2.227446 -8.801526 0.503178 -0.009990 1.806519 1.864746 -0.781482 -37.810931 8.464646 72.093025 82.690374 62.552851 -4.424723 -11.558567 8.673362 0.055683 -0.027057 0.028634
-0.546347 54.333771 35.448408 168.762842 -39.241078 -3.151721 3.113589 22.089801 3.235905 0.381911 3.191254 0.397858 0.593065 5.074793 0.614537 2.544646 18.747361 2.616355 2.682244 14.529996 -0.361610 5.170649 -8.750164 -1.696209 -7.432080 -0.595831 -4.134689 0.755392 -4.820869 5.977233 -108.279362 -76.539540 125.198718 1.316680 4.814547 -5.403746 -5.324977 0.375927 -0.183318 7.168656 -1.247203 2.167331 143.046165 -74.554693 -162.882037 -4.950011 -14.713532 18.374165 -2.973391 -42.285203 7.325760 -138.193758 86.968454 -134.521066 -2.316225 -9.314578 -0.127435 0.016027 1.782876 1.860163 -0.761185 -37.896987 8.407197 72.094135 82.626207 62.579614 -4.464315 -11.535274 8.652891 0.046709 -0.014292 0.022989
-0.524286 54.325343 35.475138 168.780642 -39.174924 -3.114086 3.101042 22.086117 3.215477 0.379578 3.192844 0.393695 0.585192 5.078655 0.616128 2.514760 18.755491 2.617976 2.707380 14.550645 -0.360619 5.216612 -8.710802 -1.702953 -7.425062 -0.652409 -4.151713 0.725180 -4.700340 5.996251 -108.323050 -76.559346 125.257858 1.370182 4.895315 -5.382644 -5.326891 0.360536 -0.199859 7.181001 -1.220729 2.204204 142.267903 -74.497232 -162.216044 -4.929009 -14.583325 18.299085 -2.832533 -42.234612 7.205523 -138.928559 87.081834 -135.111967 -2.258183 -9.680739 -0.587475 0.029098 1.647536 1.782311 -0.712560 -37.990907 8.324996 72.202985 82.557875 62.738253 -4.486541 -11.500518 8.631287 0.031583 -0.018606 0.013314
-0.495476 54.317433 35.502419 168.772658 -39.117804 -3.078447 3.119051 22.089003 3.210585 0.378361 3.191397 0.389788 0.578766 5.081566 0.618761 2.490743 18.761266 2.624424 2.727270 14.566114 -0.359479 5.252873 -8.681272 -1.707718 -7.448917 -0.592428 -4.154359 0.700077 -4.685252 6.002554 -108.516773 -76.571971 125.493198 1.435092 5.003287 -5.367772 -5.338931 0.409106 -0.206091 7.198819 -1.276796 2.207645 141.559478 -74.461055 -161.616340 -4.906804 -14.473168 18.212336 -2.825693 -42.247656 7.274770 -137.266208 86.989770 -133.460915 -2.155379 -9.872524 -0.871856 0.058049 1.406402 1.642981 -0.654205 -38.073039 8.271169 72.307905 82.496402 62.892066 -4.502679 -11.464078 8.608699 0.017305 -0.031616 0.005962
-0.463090 54.308443 35.531069 168.810170 -39.051579 -3.086306 3.145038 22.128997 3.237138 0.347374 3.137194 0.377608 0.574182 5.083868 0.622440 2.467097 18.738049 2.623167 2.749601 14.602757 -0.346815 5.277932 -8.662681 -1.710839 -7.464237 -0.553285 -4.159199 0.659566 -4.608673 6.023515 -108.642775 -76.604253 125.666007 1.516945 5.079255 -5.344789 -5.337622 0.433777 -0.205736 7.197696 -1.313990 2.200463 140.952246 -74.464752 -161.106579 -4.886627 -14.380445 18.112192 -2.996913 -42.336481 7.502628 -135.056122 86.765173 -131.380117 -2.078322 -9.947301 -0.963118 0.108586 1.120571 1.407877 -0.630195 -38.175267 8.224637 72.463259 82.450674 63.106289 -4.480993 -11.443281 8.596162 -0.021922 -0.036331 -0.012474
-0.429558 54.301382 35.556085 168.824715 -39.007776 -3.090155 3.163261 22.126265 3.246167 0.330749 3.119883 0.377097 0.585595 5.106322 0.629572 2.458501 18.757485 2.644063 2.754376 14.592745 -0.353858 5.275574 -8.680379 -1.721508 -7.482508 -0.605046 -4.175655 0.620526 -4.476136 6.047162 -108.719234 -76.657252 125.777031 1.606143 5.121668 -5.314003 -5.345593 0.421567 -0.213428 7.188674 -1.306661 2.211724 140.549930 -74.415469 -160.786759 -4.877783 -14.289019 18.002095 -3.202411 -42.434196 7.774881 -132.952808 86.481754 -129.434162 -1.956059 -9.999241 -1.025424 0.117810 0.879989 1.202774 -0.625392 -38.233226 8.217636 72.466544 82.440967 63.135193 -4.438658 -11.456687 8.591125 -0.045367 -0.018938 -0.029808
-0.400486 54.292861 35.579381 168.857421 -38.955277 -3.099591 3.164758 22.105445 3.248511 0.314295 3.110419 0.375879 0.597285 5.124029 0.637722 2.452504 18.777171 2.664991 2.753677 14.580240 -0.361635 5.295207 -8.665260 -1.723855 -7.508676 -0.599463 -4.192871 0.599410 -4.394773 6.067737 -108.952729 -76.700263 126.042580 1.687441 5.186379 -5.299175 -5.360419 0.387788 -0.225720 7.179503 -1.278221 2.228006 140.331061 -74.363048 -160.628277 -4.881370 -14.174713 17.866961 -3.414151 -42.571361 8.044126 -131.020374 86.135885 -127.661789 -1.863939 -9.971743 -1.002865 0.169588 0.619530 0.996088 -0.593230 -38.314668 8.180141 72.582580 82.396565 63.306112 -4.416823 -11.438764 8.587186 -0.112046 -0.022795 -0.051387
-0.378309 54.286775 35.594299 168.917549 -38.934261 -3.109227 3.122824 22.101012 3.226146 0.327093 3.130733 0.380346 0.588549 5.116863 0.640341 2.446002 18.794778 2.680074 2.747371 14.557556 -0.373186 5.320310 -8.645840 -1.722847 -7.522847 -0.575020 -4.210488 0.583779 -4.319081 6.087482 -109.361463 -76.704311 126.485312 1.775028 5.299629 -5.300942 -5.369604 0.370339 -0.232856 7.170565 -1.256028 2.240593 140.302022 -74.305725 -160.637596 -4.888959 -14.022970 17.682108 -3.588920 -42.690366 8.241417 -129.768341 85.789904 -126.547455 -1.716561 -9.958483 -0.901467 0.159515 0.418610 0.766230 -0.602633 -38.346234 8.153835 72.666697 82.339597 63.395658 -4.445386 -11.424400 8.594469 -0.142763 -0.017438 -0.061629
-0.360280 54.283280 35.600100 169.001796 -38.950783 -3.138415 3.067409 22.133194 3.211625 0.368132 3.177812 0.393570 0.554412 5.093184 0.636470 2.430558 18.802241 2.689345 2.744888 14.533786 -0.382894 5.337917 -8.647929 -1.727934 -7.525262 -0.558351 -4.225218 0.570533 -4.239029 6.098915 -109.551728 -76.767719 126.700933 1.842448 5.332128 -5.297594 -5.370458 0.380817 -0.234393 7.157769 -1.263627 2.244714 140.360738 -74.252607 -160.707939 -4.901501 -13.851282 17.417961 -3.727315 -42.764322 8.365346 -129.463068 85.519483 -126.331478 -1.561360 -9.983692 -0.787019 0.109604 0.332734 0.604648 -0.640644 -38.337358 8.145938 72.707052 82.340845 63.429547 -4.475781 -11.423373 8.598814 -0.116888 -0.011644 -0.056238
-0.348290 54.272942 35.606594 169.110455 -38.924592 -3.188717 3.006014 22.138147 3.208398 0.360412 3.176070 0.393759 0.562975 5.116370 0.642900 2.405329 18.799196 2.693087 2.755066 14.522079 -0.383603 5.346383 -8.673087 -1.741908 -7.523638 -0.548999 -4.234944 0.570166 -4.162738 6.097931 -109.870792 -76.784613 127.038533 1.926571 5.412307 -5.292010 -5.370076 0.386512 -0.238206 7.149290 -1.274385 2.248984 140.466100 -74.204558 -160.820764 -4.918159 -13.665683 17.081033 -3.836082 -42.859794 8.411389 -129.919681 85.376323 -126.808440 -1.487144 -9.994689 -0.720221 0.062458 0.198827 0.414021 -0.714700 -38.372453 8.159496 72.773626 82.354984 63.473775 -4.492671 -11.436058 8.611199 -0.120408 0.005412 -0.050669
-0.345465 54.261069 35.603359 169.205190 -38.928060 -3.202933 2.991145 22.222631 3.200709 0.323994 3.141451 0.389203 0.557052 5.118965 0.645040 2.383346 18.804420 2.697938 2.762019 14.500311 -0.388495 5.351197 -8.699805 -1.752879 -7.511236 -0.551657 -4.239229 0.571547 -4.092772 6.083995 -110.049802 -76.849434 127.236657 1.987980 5.441850 -5.282373 -5.369332 0.371163 -0.247765 7.147212 -1.270453 2.260952 140.660258 -74.131947 -161.036340 -4.926235 -13.454967 16.682921 -3.867580 -42.899379 8.368022 -130.816364 85.280490 -127.704946 -1.422946 -10.071265 -0.671463 0.014988 0.127831 0.275463 -0.758686 -38.375948 8.136332 72.873993 82.369099 63.543507 -4.513693 -11.443120 8.628734 -0.124048 0.011721 -0.043154
-0.344200 54.239676 35.598981 169.279067 -38.908929 -3.225352 2.963360 22.253199 3.195738 0.327988 3.154302 0.392263 0.543029 5.110070 0.645619 2.360485 18.809377 2.702381 2.773357 14.514458 -0.385302 5.342165 -8.767814 -1.774031 -7.493501 -0.561794 -4.236792 0.568823 -4.033299 6.059298 -110.186906 -76.919261 127.398893 2.046877 5.472609 -5.265887 -5.373164 0.382899 -0.279431 7.157406 -1.306030 2.284697 140.866150 -74.055449 -161.270264 -4.928845 -13.250575 16.223384 -3.854519 -42.929218 8.282476 -131.724967 85.268702 -128.557778 -1.363722 -10.147567 -0.677741 -0.029709 0.103127 0.200426 -0.816129 -38.404666 8.166737 73.004651 82.405593 63.625134 -4.558962 -11.459568 8.651716 -0.105142 0.025899 -0.029910
